<svg width="171" height="171" viewBox="0 0 171 171" fill="none" xmlns="http://www.w3.org/2000/svg">
<path d="M35 17.5C35 27.165 27.165 35 17.5 35C7.83502 35 0 27.165 0 17.5C0 7.83502 7.83502 0 17.5 0C27.165 0 35 7.83502 35 17.5Z" fill="#8A2BE2"/>
<path d="M171 52.5C171 62.165 163.165 70 153.5 70C143.835 70 136 62.165 136 52.5C136 42.835 143.835 35 153.5 35C163.165 35 171 42.835 171 52.5Z" fill="#8A2BE2"/>
<path d="M126 17.5C126 27.165 118.165 35 108.5 35C98.835 35 91 27.165 91 17.5C91 7.83502 98.835 0 108.5 0C118.165 0 126 7.83502 126 17.5Z" fill="#9370DB"/>
<path d="M78 52.5C78 62.165 70.165 70 60.5 70C50.835 70 43 62.165 43 52.5C43 42.835 50.835 35 60.5 35C70.165 35 78 42.835 78 52.5Z" fill="#9370DB"/>
<path d="M171 153.5C171 163.165 163.165 171 153.5 171C143.835 171 136 163.165 136 153.5C136 143.835 143.835 136 153.5 136C163.165 136 171 143.835 171 153.5Z" fill="#8A2BE2"/>
<path d="M126 118.5C126 128.165 118.165 136 108.5 136C98.835 136 91 128.165 91 118.5C91 108.835 98.835 101 108.5 101C118.165 101 126 108.835 126 118.5Z" fill="#9370DB"/>
<path d="M28 74C28 80.0751 23.0751 85 17 85C10.9249 85 6 80.0751 6 74C6 67.9249 10.9249 63 17 63C23.0751 63 28 67.9249 28 74Z" fill="#6A0DAD"/>
<path d="M119 70C119 76.0751 114.075 81 108 81C101.925 81 97 76.0751 97 70C97 63.9249 101.925 59 108 59C114.075 59 119 63.9249 119 70Z" fill="#8A2BE2"/>
<path d="M171 92C171 98.0751 166.075 103 160 103C153.925 103 149 98.0751 149 92C149 85.9249 153.925 81 160 81C166.075 81 171 85.9249 171 92Z" fill="#9370DB"/>
<path d="M74 103C74 109.075 69.0751 114 63 114C56.9249 114 52 109.075 52 103C52 96.9249 56.9249 92 63 92C69.0751 92 74 96.9249 74 103Z" fill="#9370DB"/>
<path d="M120 160C120 166.075 115.075 171 109 171C102.925 171 98 166.075 98 160C98 153.925 102.925 149 109 149C115.075 149 120 153.925 120 160Z" fill="#6A0DAD"/>
<path d="M22 160C22 166.075 17.0751 171 11 171C4.92487 171 0 166.075 0 160C0 153.925 4.92487 149 11 149C17.0751 149 22 153.925 22 160Z" fill="#6A0DAD"/>
<path d="M71 11C71 17.0751 66.0751 22 60 22C53.9249 22 49 17.0751 49 11C49 4.92487 53.9249 0 60 0C66.0751 0 71 4.92487 71 11Z" fill="#6A0DAD"/>
<path d="M164 11C164 17.0751 159.075 22 153 22C146.925 22 142 17.0751 142 11C142 4.92487 146.925 0 153 0C159.075 0 164 4.92487 164 11Z" fill="#6A0DAD"/>
<path d="M35 118.5C35 128.165 27.165 136 17.5 136C7.83502 136 0 128.165 0 118.5C0 108.835 7.83502 101 17.5 101C27.165 101 35 108.835 35 118.5Z" fill="#9370DB"/>
<path d="M82 153.5C82 163.165 74.165 171 64.5 171C54.835 171 47 163.165 47 153.5C47 143.835 54.835 136 64.5 136C74.165 136 82 143.835 82 153.5Z" fill="#8A2BE2"/>
</svg>
