<svg width="887" height="339" viewBox="0 0 887 339" fill="none" xmlns="http://www.w3.org/2000/svg">
<path d="M751.469 237.3L792.613 118.65H887L799.873 339H703.066L574.796 0L669.183 0L751.469 237.3Z" fill="white"/>
<path fill-rule="evenodd" clip-rule="evenodd" d="M306.154 339L388.441 101.7L408.376 159.19L340.34 339H434.727L452.727 287.091L470.727 339H565.114L497.078 159.19L517.013 101.7L599.3 339H693.687L565.417 0L468.61 0L452.727 41.9755L436.844 0L340.037 0L211.767 339H306.154ZM452.727 41.9755L408.376 159.19L452.727 287.091L497.078 159.19L452.727 41.9755Z" fill="white"/>
<path d="M211.767 339H0L0 0L183.405 0V67.8H87.1268V271.2H237.421L226.127 301.049L211.767 339Z" fill="white"/>
</svg>
