<svg width="333" height="351" viewBox="0 0 333 351" fill="none" xmlns="http://www.w3.org/2000/svg">
<path d="M69.5 22V72M2.5 0V50M50 69.5H0M72 2.5H22M69.5 115V165M2.5 93V143M50 162.5H0M72 95.5H22M69.5 208V258M2.5 186V236M50 255.5H0M72 188.5H22M69.5 301V351M2.5 279V329M50 348.5H0M72 281.5H22M199.5 22V72M132.5 0V50M180 69.5H130M202 2.5H152M199.5 115V165M132.5 93V143M180 162.5H130M202 95.5H152M199.5 208V258M132.5 186V236M180 255.5H130M202 188.5H152M199.5 301V351M132.5 279V329M180 348.5H130M202 281.5H152M330.5 22V72M263.5 0V50M311 69.5H261M333 2.5H283M330.5 115V165M263.5 93V143M311 162.5H261M333 95.5H283M330.5 208V258M263.5 186V236M311 255.5H261M333 188.5H283M330.5 301V351M263.5 279V329M311 348.5H261M333 281.5H283" stroke="#8A2BE2" stroke-width="5"/>
</svg>
