<svg width="210" height="154" viewBox="0 0 210 154" fill="none" xmlns="http://www.w3.org/2000/svg">
<path d="M17.7535 0L35.507 30.75H0L17.7535 0Z" fill="#6A0DAD"/>
<path d="M17.7535 41L35.507 71.75H0L17.7535 41Z" fill="#6A0DAD"/>
<path d="M17.7535 82L35.507 112.75H0L17.7535 82Z" fill="#6A0DAD"/>
<path d="M17.7535 123L35.507 153.75H0L17.7535 123Z" fill="#6A0DAD"/>
<path d="M75.7535 30.75L58 0H93.507L75.7535 30.75Z" fill="#6A0DAD"/>
<path d="M75.7535 71.75L58 41H93.507L75.7535 71.75Z" fill="#6A0DAD"/>
<path d="M75.7535 112.75L58 82H93.507L75.7535 112.75Z" fill="#6A0DAD"/>
<path d="M75.7535 153.75L58 123H93.507L75.7535 153.75Z" fill="#6A0DAD"/>
<path d="M191.754 30.75L174 0H209.507L191.754 30.75Z" fill="#6A0DAD"/>
<path d="M191.754 71.75L174 41H209.507L191.754 71.75Z" fill="#6A0DAD"/>
<path d="M191.754 112.75L174 82H209.507L191.754 112.75Z" fill="#6A0DAD"/>
<path d="M191.754 153.75L174 123H209.507L191.754 153.75Z" fill="#6A0DAD"/>
<path d="M133.754 0L151.507 30.75H116L133.754 0Z" fill="#6A0DAD"/>
<path d="M133.754 41L151.507 71.75H116L133.754 41Z" fill="#6A0DAD"/>
<path d="M133.754 82L151.507 112.75H116L133.754 82Z" fill="#6A0DAD"/>
<path d="M133.754 123L151.507 153.75H116L133.754 123Z" fill="#6A0DAD"/>
</svg>
